# xmcd CD database file
#
# Track frame offsets:
#	151
#	20538
#	42532
#	61157
#	82477
#	112786
#	134756
#	158858
#	177119
#	197053
#	211020
#	234764
#
# Disc length: 3328 seconds
#
# Revision: 1
# Processed by: cddbd v1.5.2PL0 Copyright (c) Steve Scherf et al.
# Submitted via: CDex 1.70beta2
#
DISCID=9f0cfe0c
DTITLE=Magnetics Vocal Jazz Ensemble/UofT Vocal Jazz - Magnetics Vocal Jazz Ensemble/UofT Vocal Jazz
DYEAR=1900
DGENRE=Jazz
TTITLE0=Spinning Wheel
TTITLE1=My Favourite Things
TTITLE2=How Do you Keep The Music Playing?
TTITLE3=Twisted
TTITLE4=Astrud
TTITLE5=Higher Ground
TTITLE6=Flying
TTITLE7=Anthropolgy
TTITLE8=Indigo
TTITLE9=Nightdream
TTITLE10=Love Makes The World Go 'Round
TTITLE11=How Do You Keep The Music Playing?
EXTD=
EXTT0=
EXTT1=
EXTT2=
EXTT3=
EXTT4=
EXTT5=
EXTT6=
EXTT7=
EXTT8=
EXTT9=
EXTT10=
EXTT11=
PLAYORDER=
